<?xml version="1.0" encoding="utf-8"?>
<!-- Generator: Adobe Illustrator 21.1.0, SVG Export Plug-In . SVG Version: 6.00 Build 0)  -->
<svg version="1.1" xmlns="http://www.w3.org/2000/svg" xmlns:xlink="http://www.w3.org/1999/xlink" x="0px" y="0px"
	 viewBox="0 0 981 217" style="enable-background:new 0 0 981 217;" xml:space="preserve">
<style type="text/css">
	.st0{fill:#006FBA;}
</style>
<g id="Layer_1">
</g>
<g id="Layer_2">
	<g>
		<path class="st0" d="M170.9,142.7c0,0-1,0-1.6,0c-1.6,0-3.2-0.7-4-2.2c-0.5-0.9-0.8-1.9-0.8-2.9c0-0.2,0-67.5,0-67.5
			c0.1-3.4-1.5-6.6-4.4-8.5l-56.8-36.7c-4.1-2.9-8.6-3-12.9,0L33.4,61.6c-2.5,1.6-4.1,4.3-4.4,7.2c0,0,0,66.2,0,66.2
			c0,4.5-0.2,9.1,1.7,13.3c0.5,1.2,1.2,2.3,2,3.4c0.8,1,1.6,2,2.6,2.9c1,0.9,2,1.6,3.1,2.3c2.1,1.2,4.5,1.9,6.9,2.3
			c1.3,0.2,2.5,0.2,3.8,0.2c0.3,0,46.7,0,47,0c0.3,0,0.6,0.1,0.8,0c0.4-0.1,0.8-0.6,0.7-1.1c0-0.1,0-0.2-0.1-0.3
			c-0.2-0.6-1.1-2.7-1.4-3.2c-0.5-1-1-2-1.7-3c-0.5-0.8-1.1-1.6-1.8-2.4c-0.7-0.8-1.4-1.6-2.2-2.3c-2.2-1.9-4.9-3.3-7.6-4.3
			c-2.5-0.8-5.3-1.3-7.9-1.3l-22,0c-1.7,0-3.2-0.7-4.1-2.2c-0.5-0.9-0.6-1.9-0.6-2.9c0-0.2,0.1-61.7,0.1-61.7l48.3-31.3l48.3,31.3
			c0,0,0,53.9,0,68c0,8.1,5.1,13.9,12,16.3c2,0.7,4.3,1,6.4,1c2.9,0,7.4-0.7,7.4-0.7c0.7,0,1.2-0.5,1.2-1.2v-14.2
			C172,143.2,171.5,142.7,170.9,142.7z"/>
		<path d="M856.1,79.9c-4.8-4.7-11.5-7-20-7c-5.9,0-11.1,1.2-15.6,3.5c-4.5,2.3-8.2,5.4-11.3,9.5V75.8c0-0.6-0.5-1-1-1h-16.7
			c-0.6,0-1,0.5-1,1v28.5h0v53.9c0,0,0,0,0,0c0,0.2,0,0.3,0,0.3c0,0.5,0.4,0.9,0.9,0.9h17.5c0.5,0,0.9-0.4,0.9-0.9v-48.2
			c0-6,1.8-10.9,5.4-14.8c0.9-0.9,1.8-1.7,2.8-2.4c3-2.1,6.5-3.2,10.5-3.2c5.1,0,9,1.2,11.6,3.7c2.6,2.4,3.9,6.5,3.9,12.3v52.4
			c0,0.3,0.1,0.5,0.4,0.7c0.1,0.3,0.4,0.5,0.8,0.5h17.5c0.5,0,0.9-0.4,0.9-0.9v-56.1C863.3,92,860.9,84.6,856.1,79.9z"/>
		<ellipse cx="284.2" cy="54.6" rx="11.2" ry="11.3"/>
		<path d="M302.2,142.2h-3.7c-1.7,0-3.2-0.7-4.1-2.2c-0.5-0.9-0.6-1.9-0.6-2.9c0-0.3,0-60.7,0-61c0-0.1,0-0.2,0-0.4c0-0.6-0.5-1-1-1
			h-16.2c0,0-17.8,0-17.8,0c-5.7,0-11.1,3.5-13.7,8.5c-0.6,1-0.9,2.1-1.3,3.2c-0.6,1.6-16.6,50.5-17,52.4h-0.8
			c-0.5-2-21.2-63.3-21.2-63.3c-0.1-0.4-0.5-0.6-0.8-0.6h-17.7c-0.6,0-1.1,0.6-0.8,1.2l30.2,82.6c0.1,0.3,0.5,0.6,0.8,0.6h18.8
			c0.4,0,0.7-0.2,0.8-0.6l22.7-61.6c1.1-3.3,2.7-5.6,6.1-5.6h9.9c0,8.8,0,17.7,0,26.5c0,6.9,0,13.8,0,20.7c0,4,0.3,7.9,2.2,11.6
			c3.1,6,9.2,9.9,16,9.8c1.6,0,3.2-0.2,4.8-0.5c0.8-0.1,1.5-0.2,2.3-0.4c0.7-0.1,1.5-0.2,2.2-0.3c0.5-0.1,0.9-0.4,0.9-0.9v-14.8
			C303.1,142.6,302.7,142.2,302.2,142.2z"/>
		<path d="M341.3,142.2h-3.7c-1.7,0-3.2-0.7-4.1-2.2c-0.5-0.9-0.6-1.9-0.6-2.9c0-0.3,0-28.9,0-30.1c0-0.1,0-62.3,0-63.1
			c0-0.7,0-10.7,0-10.8c0-0.6-0.5-1-1-1h-17c-0.6,0-1,0.5-1,1c0,1.3,0,2.5,0,3.8c0,3.4,0,6.8,0,10.2c0,4.9,0,9.8,0,14.7
			c0,5.8,0,11.6,0,17.4c0,6.1,0,12.2,0,18.2c0,5.7,0,11.5,0,17.2c0,4.8,0,9.5,0,14.3c0,3.2,0,6.4,0,9.6c0,4.1,0.3,8.1,2.3,11.8
			c3.1,5.9,9.2,9.7,15.9,9.7c1.6,0,3.2-0.2,4.8-0.5c0.8-0.1,3.8-0.6,4.5-0.7c0.5-0.1,0.9-0.4,0.9-0.9v-14.8
			C342.1,142.6,341.7,142.2,341.3,142.2z"/>
		<path d="M465.7,143c0,0-0.8,0-0.7,0c-1.2,0-2.4-0.4-3.3-1.2c-0.8-0.7-1.2-1.9-1.3-3c-0.1-1-0.2-37-0.2-37c0-8.5-2.8-15-8.3-19.6
			c-5.6-4.6-13.9-8.3-25-8.3c-8.7,0-17,0.9-24,6.5c-1.3,1-2.5,2.2-3.5,3.4c-3.4,4.1-6.1,9.7-6.1,15.1c0,0.5,0.2,0.9,0.7,1l14.4,2.6
			c0.5,0.1,0.9-0.2,1-0.7c0.2-1.2,0.3-2.7,0.6-3.9c0.9-2.9,2.9-5.7,6.1-7.3c3.4-1.7,7-1.9,10.8-1.7c5.4,0.3,9.1,2.6,11.2,4.8
			c2.1,2.2,3.1,5.4,3.1,9.4v2.6c0,0.6-0.5,1-1,1c-16.2,0.1-28.8,2.3-37.7,6.5c-9.1,4.4-13.7,11.2-13.7,21.9c0,6.5,2.3,12.6,7,17.4
			c6.9,7,17.8,8.9,27.2,7.1c7.1-1.3,16.2-5,19-12.3c0.3,1.8,0.9,3.5,1.8,5.1c2,3.1,5.2,5.4,8.6,6.6c2.4,0.8,4.9,0.9,7.3,0.8
			c1.3-0.1,2.5-0.2,3.8-0.3c1-0.1,2.2-0.1,3-0.6c0.3-0.2,0.5-0.6,0.5-0.9v-13.8C466.9,143.6,466.4,143,465.7,143z M441.2,122.8
			c0,0.9,0,1.8,0,2.6c-0.2,5.6-2.3,10.1-5.6,13.5c-3.6,3.6-8.3,5.4-14.5,5.4c-8.5,0-12.7-3.4-12.7-10.2c0-5.2,2.9-8.8,8.7-10.8
			c5.6-1.9,13.3-2.9,23.1-2.9c0.6,0,1.1,0.5,1.1,1C441.2,121.9,441.2,122.3,441.2,122.8z"/>
		<path d="M380.5,142.2h-3.7c-1.7,0-3.2-0.7-4.1-2.2c-0.5-0.9-0.6-1.9-0.6-2.9c0-0.3,0-28.9,0-30.1c0-0.1,0-62.3,0-63.1
			c0-0.7,0-10.7,0-10.8c0-0.6-0.5-1-1-1h-17c-0.6,0-1,0.5-1,1c0,1.3,0,2.5,0,3.8c0,3.4,0,6.8,0,10.2c0,4.9,0,9.8,0,14.7
			c0,5.8,0,11.6,0,17.4c0,6.1,0,12.2,0,18.2c0,5.7,0,11.5,0,17.2c0,4.8,0,9.5,0,14.3c0,3.2,0,6.4,0,9.6c0,4.2,0.3,8.3,2.4,12
			c3.2,5.8,9.1,9.5,15.8,9.4c1.6,0,3.2-0.2,4.8-0.5c0.8-0.1,3.8-0.6,4.5-0.7c0.5-0.1,0.9-0.4,0.9-0.9v-14.8
			C381.4,142.6,381,142.2,380.5,142.2z"/>
		<path d="M551.4,143c0,0-0.8,0-0.7,0c-1.2,0-2.4-0.4-3.3-1.2c-0.8-0.7-1.2-1.9-1.3-3c-0.1-1-0.2-37-0.2-37c0-8.5-2.8-15-8.3-19.6
			c-5.6-4.6-13.9-8.3-25-8.3c-8.7,0-17,0.9-24,6.5c-1.3,1-2.5,2.2-3.5,3.4c-3.4,4.1-6.1,9.7-6.1,15.1c0,0.5,0.2,0.9,0.7,1l14.4,2.6
			c0.5,0.1,0.9-0.2,1-0.7c0.2-1.2,0.3-2.7,0.6-3.9c0.9-2.9,2.9-5.7,6.1-7.3c3.4-1.7,7-1.9,10.8-1.7c5.4,0.3,9.1,2.6,11.2,4.8
			c2.1,2.2,3.1,5.4,3.1,9.4v2.6c0,0.6-0.5,1-1,1c-16.2,0.1-28.8,2.3-37.7,6.5c-9.1,4.4-13.7,11.2-13.7,21.9c0,6.5,2.3,12.6,7,17.4
			c6.9,7,17.8,8.9,27.2,7.1c7.1-1.3,16.2-5,19-12.3c0.3,1.8,0.9,3.5,1.8,5.1c2,3.1,5.2,5.4,8.6,6.6c2.4,0.8,4.9,0.9,7.3,0.8
			c1.3-0.1,2.5-0.2,3.8-0.3c1-0.1,2.2-0.1,3-0.6c0.3-0.2,0.5-0.6,0.5-0.9v-13.8C552.6,143.6,552.1,143,551.4,143z M526.8,122.8
			c0,0.9,0,1.8,0,2.6c-0.2,5.6-2.3,10.1-5.6,13.5c-3.6,3.6-8.3,5.4-14.5,5.4c-8.5,0-12.7-3.4-12.7-10.2c0-5.2,2.9-8.8,8.7-10.8
			c5.6-1.9,13.3-2.9,23.1-2.9c0.6,0,1.1,0.5,1.1,1C526.8,121.9,526.8,122.3,526.8,122.8z"/>
		<g>
			<ellipse cx="496.2" cy="54.6" rx="11.2" ry="11.3"/>
			<ellipse cx="530.8" cy="54.6" rx="11.2" ry="11.3"/>
		</g>
		<path d="M723.9,143c0,0-0.8,0-0.7,0c-1.2,0-2.4-0.4-3.3-1.2c-0.8-0.7-1.2-1.9-1.3-3c-0.1-1-0.2-37-0.2-37c0-8.5-2.8-15-8.3-19.6
			c-5.6-4.6-13.9-8.3-25-8.3c-8.7,0-17,0.9-24,6.5c-1.3,1-2.5,2.2-3.5,3.4c-3.4,4.1-6.1,9.7-6.1,15.1c0,0.5,0.2,0.9,0.7,1l14.4,2.6
			c0.5,0.1,0.9-0.2,1-0.7c0.2-1.2,0.3-2.7,0.6-3.9c0.9-2.9,2.9-5.7,6.1-7.3c3.4-1.7,7-1.9,10.8-1.7c5.4,0.3,9.1,2.6,11.2,4.8
			c2.1,2.2,3.1,5.4,3.1,9.4v2.6c0,0.6-0.5,1-1,1c-16.2,0.1-28.8,2.3-37.7,6.5c-9.1,4.4-13.7,11.2-13.7,21.9c0,6.5,2.3,12.6,7,17.4
			c6.9,7,17.8,8.9,27.2,7.1c7.1-1.3,16.2-5,19-12.3c0.3,1.8,0.9,3.5,1.8,5.1c2,3.1,5.2,5.4,8.6,6.6c2.4,0.8,4.9,0.9,7.3,0.8
			c1.3-0.1,2.5-0.2,3.8-0.3c1-0.1,2.2-0.1,3-0.6c0.3-0.2,0.5-0.6,0.5-0.9v-13.8C725.1,143.6,724.5,143,723.9,143z M699.3,122.8
			c0,0.9,0,1.8,0,2.6c-0.2,5.6-2.3,10.1-5.6,13.5c-3.6,3.6-8.3,5.4-14.5,5.4c-8.5,0-12.7-3.4-12.7-10.2c0-5.2,2.9-8.8,8.7-10.8
			c5.6-1.9,13.3-2.9,23.1-2.9c0.6,0,1.1,0.5,1.1,1C699.3,121.9,699.3,122.3,699.3,122.8z"/>
		<path d="M948.9,143c0,0-0.8,0-0.7,0c-1.2,0-2.4-0.4-3.3-1.2c-0.8-0.7-1.2-1.9-1.3-3c-0.1-1-0.2-37-0.2-37c0-8.5-2.8-15-8.3-19.6
			c-5.6-4.6-13.9-8.3-25-8.3c-8.7,0-17,0.9-24,6.5c-1.3,1-2.5,2.2-3.5,3.4c-3.4,4.1-6.1,9.7-6.1,15.1c0,0.5,0.2,0.9,0.7,1l14.4,2.6
			c0.5,0.1,0.9-0.2,1-0.7c0.2-1.2,0.3-2.7,0.6-3.9c0.9-2.9,2.9-5.7,6.1-7.3c3.4-1.7,7-1.9,10.8-1.7c5.4,0.3,9.1,2.6,11.2,4.8
			c2.1,2.2,3.1,5.4,3.1,9.4v2.6c0,0.6-0.5,1-1,1c-16.2,0.1-28.8,2.3-37.7,6.5c-9.1,4.4-13.7,11.2-13.7,21.9c0,6.5,2.3,12.6,7,17.4
			c6.9,7,17.8,8.9,27.2,7.1c7.1-1.3,16.2-5,19-12.3c0.3,1.8,0.9,3.5,1.8,5.1c2,3.1,5.2,5.4,8.6,6.6c2.4,0.8,4.9,0.9,7.3,0.8
			c1.3-0.1,2.5-0.2,3.8-0.3c1-0.1,2.2-0.1,3-0.6c0.3-0.2,0.5-0.6,0.5-0.9v-13.8C950,143.6,949.5,143,948.9,143z M924.3,122.8
			c0,0.9,0,1.8,0,2.6c-0.2,5.6-2.3,10.1-5.6,13.5c-3.6,3.6-8.3,5.4-14.5,5.4c-8.5,0-12.7-3.4-12.7-10.2c0-5.2,2.9-8.8,8.7-10.8
			c5.6-1.9,13.3-2.9,23.1-2.9c0.6,0,1.1,0.5,1.1,1C924.3,121.9,924.3,122.3,924.3,122.8z"/>
		<path d="M780.5,74.7c-4.2-1.4-9.2-1.8-13.6-0.7c-4.6,1-8.4,4-11.1,7.7c-0.3,0.5-0.7,0.9-1,1.4v-7.4c0-0.6-0.5-1-1-1h-16.7
			c-0.6,0-1,0.5-1,1l0,82.4c0,0.5,0.4,0.8,0.8,0.8h17.4c0.5,0,0.8-0.4,0.8-0.8c0,0,0.2-47.4,0.2-48.9c0-5.5,2.7-10.4,6.6-14
			c4.4-4,10.1-5.1,15.9-4.6c0.6,0,2.8,0.5,3.2,0.3c0.3-0.1,0.5-0.4,0.5-0.8V75.6C781.4,75.1,780.9,74.9,780.5,74.7z"/>
		<path d="M647.9,72.8c-0.1-0.3-0.2-0.6-0.4-0.8c-0.2-0.2-0.5-0.3-0.8-0.4c-0.1,0-0.2,0-0.4,0c-12-0.1-24,0-36,0
			c-10.1,0-20.5-0.5-29.8,4.3c-1.8,1-3.6,2.1-5.2,3.4c-6.4,5.2-9.6,12.5-9.6,21.7c0,4.7,1.1,9.1,3.2,12.9c1.6,3,3.7,5.6,6.3,7.8
			c-2.7,1-5.1,2.4-7.3,4.1c-3.2,2.5-4.8,6-4.8,10.4c0,3,0.9,5.8,2.6,8.2c1.1,1.5,2.5,2.9,4,4c-0.3-0.2-2.7,1.6-3,1.8
			c-1,0.7-1.9,1.4-2.8,2.3c-1.6,1.6-3,3.4-3.9,5.5c-3,7.2-1.3,15.3,3.5,21.3c5.3,6.8,13.1,9.3,21.3,10.8c5.8,1,11.8,1.6,17.7,1.6
			c8.4,0,15.5-1,21.6-3c11.8-3.8,22.2-13.9,21.3-27.1c-0.8-12.3-11.3-18.2-22.2-20.6c-8-1.7-15.9-1.9-22.7-1.9c-2,0-3.9,0-5.9,0
			c-1.8,0-3.7,0-5.5,0h-0.5c-2,0-3.5-0.4-4.5-1.3c-1-0.8-1.4-1.8-1.4-3.2c0-1.3,0.5-2.3,1.5-3.1c1-0.9,2.6-1.3,4.7-1.3h12.9
			c10.9,0,19.7-2.6,26-7.7c6.4-5.2,9.6-12.4,9.6-21.5c0-4.3-1-8.4-2.8-12.2c2.2-1,4.2-2.2,6-3.7c0.9-0.7,1.6-1.5,2.3-2.3
			c0.7-0.8,1.3-1.6,1.9-2.4c0.6-0.9,1.2-2,1.7-3.1c0.2-0.5,1.2-2.7,1.4-3.3C648,73.6,648,73.2,647.9,72.8z M601.9,154.5
			C601.9,154.5,601.9,154.5,601.9,154.5L601.9,154.5C601.9,154.5,601.9,154.5,601.9,154.5c11.9,0,21.5,3.7,21.5,10.6
			c0,7.3-9.6,10.8-21.5,10.8c0,0,0,0,0,0h0c0,0,0,0,0,0c-11.9,0-21.5-3.9-21.5-10.8C580.4,157.7,590,154.5,601.9,154.5z
			 M614.2,111.5c-2.8,2.5-7.1,3.7-12.7,3.7c-5.6,0-9.8-1.3-12.6-3.7c-2.7-2.4-4.1-6-4.1-10.6c0-4.6,1.4-8.2,4.1-10.6
			c2.8-2.5,7-3.7,12.6-3.7c5.7,0,10,1.3,12.7,3.7c2.7,2.4,4.1,6,4.1,10.6S616.9,109.1,614.2,111.5z"/>
	</g>
</g>
</svg>
